<svg xmlns="http://www.w3.org/2000/svg" width="334" height="316" fill="none"><rect width="333.067" height="316" fill="#1F1D20" rx="17.803"/><path fill="url(#a)" d="M92.633 25.158c9.832 0 17.803 7.97 17.803 17.803v25.572l.132-.12c2.101 33.394 21.725 50.339 55.12 52.44l-.047.047a37.194 37.194 0 0 1 5.549.168c31.614-2.078 50.838-11.953 53.298-44.129l.135.144.121-9.138c.13-9.83 8.205-17.696 18.035-17.566l18.134.238c9.831.13 17.696 8.205 17.567 18.036l-.24 18.134c-.129 9.83-8.205 17.696-18.036 17.566l-15.992-.211c-28.238 3.272-36.975 20.927-39.647 50.674.109 1.238.156 2.494.139 3.764-.002.164-.007.33-.011.494 1.491 29.283 14.974 50.533 41.009 56.873l34.192.45c9.831.13 17.696 8.206 17.566 18.037l-.512 38.84c-.129 9.831-8.205 17.696-18.036 17.566l-39.22-.517c-9.832-.13-17.697-8.204-17.568-18.035l.365-27.703c-2.69-30.374-21.08-46.408-51.995-49.41a37.754 37.754 0 0 1-6.541-.013c-31.696 2.482-50.858 12.637-52.899 45.071l-.411-.43v8.745c0 9.833-7.972 17.804-17.804 17.804H74.568c-9.832 0-17.803-7.972-17.803-17.804v-18.271c0-9.832 7.97-17.803 17.803-17.803h18.271c.627 0 1.246.033 1.856.096 25.424-4.759 33.196-22.566 35.303-51.525a37.576 37.576 0 0 1-.117-3.451l.005-.193-.116.119c-1.951-31.004-17.094-52.878-45.977-57.532H53.408c-9.832 0-17.802-7.97-17.802-17.803V42.961c0-9.833 7.97-17.803 17.802-17.803h39.225ZM166.44 144.04c-7.577 0-13.718 6.142-13.718 13.718s6.142 13.718 13.718 13.718 13.718-6.142 13.718-13.718-6.142-13.718-13.718-13.718Z"/><defs><linearGradient id="a" x1="297.462" x2="6.913" y1="281.031" y2="-4.448" gradientUnits="userSpaceOnUse"><stop stop-color="#FF87C7"/><stop offset="1" stop-color="#FF4043"/></linearGradient></defs></svg>