<svg xmlns="http://www.w3.org/2000/svg" width="100" height="102" fill="none"><path fill="url(#a)" d="M25.3818 0c1.7112 0 3.0986 1.3874 3.0987 3.0986v13.4112l.0507-.0469c.7998 12.7102 8.2692 19.1593 20.9795 19.959l-.0175.0176c.2697-.0118.5413-.0163.8144-.0127.4374.0057.8707.0327 1.2979.0771 12.0317-.7912 19.3483-4.5495 20.2851-16.7949l.0508.0537.0938-7.1543c.0226-1.7109 1.4288-3.0799 3.1396-3.0576l14.2559.1885c1.7108.0227 3.08 1.4277 3.0576 3.1386l-.1885 14.2549c-.0227 1.7109-1.4278 3.0799-3.1387 3.0576l-9.7627-.1289c-10.7494 1.2451-14.074 7.9667-15.0908 19.291.0413.4701.0591.947.0528 1.4287-.0009.0641-.0032.1286-.0049.1924.5688 11.1451 5.703 19.2305 15.6142 21.6416l16.6856.2207c1.7106.023 3.0799 1.428 3.0576 3.1387l-.292 22.1367c-.0226 1.711-1.4287 3.0797-3.1397 3.0577l-22.2822-.294c-1.7108-.023-3.08-1.4278-3.0576-3.1387l.1875-14.2197C70.1051 71.955 63.105 65.8521 51.3369 64.71c-.4616.0391-.9299.056-1.4023.0498a14.3793 14.3793 0 0 1-1.0801-.0557c-12.0661.9442-19.3608 4.8095-20.1377 17.1553l-.1572-.1641v7.0059c-.0001 1.711-1.3876 3.0984-3.0987 3.0986H11.1523c-1.7112 0-3.0985-1.3874-3.0986-3.0986V74.3926c.0003-1.7111 1.3875-3.0987 3.0986-3.0987h11.5245c9.5267-1.8632 12.452-8.6232 13.249-19.5722a14.214 14.214 0 0 1-.044-1.3164l.001-.0723-.043.0449c-.7427-11.8026-6.5088-20.1282-17.5058-21.8974H3.0986C1.3874 28.4805.0001 27.093 0 25.3818V3.0986C0 1.3874 1.3874 0 3.0986 0h22.2832Zm24.4141 45.2471c-2.8834.0002-5.2206 2.3382-5.2207 5.2217.0001 2.8833 2.3374 5.2204 5.2207 5.2207 2.8835-.0001 5.2215-2.3373 5.2217-5.2207-.0001-2.8836-2.3381-5.2217-5.2217-5.2217Z"/><defs><linearGradient id="a" x1="99.7132" x2="-10.9241" y1="97.4334" y2="-11.2754" gradientUnits="userSpaceOnUse"><stop stop-color="#FF87C7"/><stop offset=".9999" stop-color="#FF4043"/></linearGradient></defs></svg>