<svg xmlns="http://www.w3.org/2000/svg" width="580" height="156" fill="none"><path fill="#FFF4D0" d="M4.123 153.063A4.123 4.123 0 0 1 0 148.94V4.123A4.123 4.123 0 0 1 4.123 0h18.02a4.123 4.123 0 0 1 4.123 4.123v122.141a4.123 4.123 0 0 0 4.123 4.123h73.01a4.123 4.123 0 0 1 4.123 4.123v14.43a4.123 4.123 0 0 1-4.123 4.123H4.123ZM175.069 155.33c-11.968 0-22.424-2.393-31.369-7.18-8.818-4.913-15.684-11.779-20.597-20.598-4.913-8.818-7.37-19.211-7.37-31.18 0-11.967 2.394-22.36 7.181-31.179 4.913-8.818 11.842-15.62 20.786-20.408 8.945-4.913 19.464-7.37 31.558-7.37 12.219 0 22.738 2.394 31.557 7.181 8.818 4.787 15.621 11.59 20.408 20.408 4.787 8.819 7.181 19.275 7.181 31.369 0 11.968-2.394 22.424-7.181 31.368-4.787 8.819-11.653 15.622-20.597 20.409-8.818 4.787-19.338 7.18-31.557 7.18Zm0-22.298c10.708 0 18.959-3.275 24.754-9.826 5.921-6.551 8.882-15.495 8.882-26.833 0-11.59-2.961-20.598-8.882-27.022-5.795-6.425-14.046-9.638-24.754-9.638-10.583 0-18.834 3.276-24.755 9.827-5.921 6.424-8.881 15.369-8.881 26.833 0 11.338 2.96 20.282 8.881 26.833 5.921 6.551 14.172 9.826 24.755 9.826ZM287.911 153.063c-6.929 0-12.346-1.764-16.251-5.291-3.779-3.528-5.669-8.882-5.669-16.062V63.836a4.123 4.123 0 0 0-4.123-4.123h-12.163a4.122 4.122 0 0 1-4.122-4.123V43.806a4.122 4.122 0 0 1 4.122-4.123h12.352a4.123 4.123 0 0 0 4.123-4.123V9.792a4.123 4.123 0 0 1 4.123-4.123h17.076a4.122 4.122 0 0 1 4.122 4.123V35.56a4.123 4.123 0 0 0 4.123 4.123h19.911a4.122 4.122 0 0 1 4.122 4.123V55.59a4.122 4.122 0 0 1-4.122 4.122h-19.722a4.123 4.123 0 0 0-4.123 4.123v64.885a4.122 4.122 0 0 0 4.123 4.122h22.556a4.123 4.123 0 0 1 4.123 4.123v11.974a4.123 4.123 0 0 1-4.123 4.123h-30.458ZM388.031 155.141c-15.118 0-26.896-4.094-35.337-12.282-8.314-8.189-12.472-19.338-12.472-33.447V43.806a4.123 4.123 0 0 1 4.123-4.123h17.454a4.123 4.123 0 0 1 4.123 4.123v60.503c0 9.323 2.393 16.378 7.18 21.165 4.788 4.661 11.905 6.991 21.354 6.991 9.7 0 17.196-2.519 22.487-7.558 5.417-5.039 8.125-12.094 8.125-21.164V43.806a4.123 4.123 0 0 1 4.123-4.123h17.454a4.123 4.123 0 0 1 4.123 4.123v79.246a4.122 4.122 0 0 0 4.123 4.122h4.792a4.123 4.123 0 0 1 4.123 4.123v17.643a4.123 4.123 0 0 1-4.123 4.123h-18.398a4.123 4.123 0 0 1-4.123-4.123v-9.706a4.123 4.123 0 0 0-4.123-4.123h-1.583c-1.392 0-2.679.71-3.494 1.838-4.08 5.651-9.139 10.015-15.177 13.09-6.676 3.402-14.928 5.102-24.754 5.102ZM531.814 155.33c-16.126 0-28.849-3.338-38.172-10.015-8.159-5.954-13.086-13.935-14.779-23.943-.4-2.362 1.512-4.402 3.908-4.402h17.122c2.052 0 3.745 1.527 4.332 3.492 1.329 4.446 3.911 7.88 7.747 10.303 4.787 3.023 11.716 4.535 20.786 4.535 15.622 0 23.432-4.661 23.432-13.984 0-3.779-1.197-6.739-3.59-8.881-2.394-2.142-6.362-3.716-11.905-4.724l-25.133-4.724c-21.794-4.157-32.691-14.488-32.691-30.99 0-10.583 4.158-18.96 12.472-25.133 8.315-6.3 19.716-9.449 34.203-9.449 14.613 0 26.203 3.213 34.77 9.638 7.531 5.566 12.178 13.024 13.941 22.374.448 2.377-1.473 4.459-3.892 4.459h-17c-1.908 0-3.53-1.324-4.185-3.115-1.548-4.24-4.009-7.486-7.383-9.735-4.031-2.771-9.889-4.157-17.574-4.157-6.803 0-12.031 1.134-15.684 3.401-3.653 2.268-5.48 5.543-5.48 9.827 0 3.149 1.134 5.731 3.401 7.747 2.394 1.89 6.11 3.339 11.149 4.346l25.322 4.913c11.464 2.142 19.841 5.859 25.132 11.15 5.291 5.165 7.937 12.156 7.937 20.975 0 11.338-4.157 20.219-12.472 26.644-8.314 6.299-20.219 9.448-35.714 9.448Z"/></svg>